<svg width="26" height="26" viewBox="0 0 26 26" fill="none" xmlns="http://www.w3.org/2000/svg">
<path opacity="0.2" d="M13 26C20.1797 26 26 20.1797 26 13C26 5.8203 20.1797 0 13 0C5.8203 0 0 5.8203 0 13C0 20.1797 5.8203 26 13 26Z" fill="#F3BA2F"/>
<path fill-rule="evenodd" clip-rule="evenodd" d="M10.2822 11.8826L13.0013 9.16468L15.7216 11.8848L17.3029 10.3025L13.0013 6L8.69981 10.3014L10.2822 11.8826ZM6 13.0002L7.58181 11.4185L9.16362 13.0002L7.58181 14.582L6 13.0002ZM13.0013 16.8364L10.2822 14.1174L8.69759 15.6975L8.69981 15.6997L13.0013 20L17.3029 15.6975L17.304 15.6964L15.7216 14.1163L13.0013 16.8364ZM16.8364 13.0006L18.4182 11.4189L20 13.0006L18.4182 14.5824L16.8364 13.0006ZM13.0013 11.3939L14.6058 12.9994H14.607L14.6058 13.0006L13.0013 14.6061L11.3968 13.0028L11.3946 12.9994L11.3968 12.9972L11.6777 12.7164L11.8148 12.5804L13.0013 11.3939Z" fill="#F3BA2F"/>
</svg>
