<svg width="26" height="26" viewBox="0 0 26 26" fill="none" xmlns="http://www.w3.org/2000/svg">
<path opacity="0.2" d="M13 26C20.1797 26 26 20.1797 26 13C26 5.8203 20.1797 0 13 0C5.8203 0 0 5.8203 0 13C0 20.1797 5.8203 26 13 26Z" fill="#F7931A"/>
<path fill-rule="evenodd" clip-rule="evenodd" d="M7.49304 7.6875L10.0794 6.5H16.0204L18.5746 7.68815L21.125 11.0886L13.0005 20.3125L4.875 11.0875L7.49304 7.6875ZM15.9628 6.76561L18.2162 7.81382L15.7988 8.92373H10.2328L7.73014 7.87041L10.1364 6.76561H15.9628ZM18.4127 8.01537L18.35 7.87607L18.4048 7.90158L20.785 11.0751L20.7693 11.0929L20.7214 10.9963L17.0477 12.8517L15.9311 9.15475L18.4127 8.01537ZM7.52896 8.07349L5.27582 10.9996L8.94286 12.8517L10.0638 9.14034L7.52896 8.07349ZM9.16554 13.0246L10.3239 9.18934H15.6666L16.825 13.0246L12.9953 19.7943L9.16554 13.0246ZM20.4897 11.4102L17.0617 13.1415L13.6451 19.1811L20.4897 11.4102ZM8.92881 13.1415L12.3268 19.1481L5.51953 11.4197L8.92881 13.1415ZM14.4865 13.0105C14.8125 12.8424 15.0163 12.5462 14.9686 12.0527C14.9046 11.3782 14.3297 11.1521 13.6038 11.0877L13.6038 10.1522L13.0415 10.1522L13.0415 11.0631C12.8937 11.0631 12.7426 11.0661 12.5925 11.0691L12.5926 10.1522L12.0305 10.1522L12.0303 11.0875C11.9086 11.09 11.789 11.0923 11.6724 11.0924L11.6724 11.0895L10.8968 11.0892L10.8969 11.6974C10.8969 11.6974 11.3122 11.6894 11.3053 11.6971C11.5331 11.6972 11.6072 11.8311 11.6288 11.9466L11.6288 13.0124C11.6445 13.0125 11.665 13.0132 11.6882 13.0164L11.6692 13.0164L11.6288 13.0165L11.6287 14.5095C11.6187 14.5821 11.5766 14.6978 11.4174 14.6981C11.4246 14.7046 11.0087 14.698 11.0087 14.698L10.8969 15.3781L11.6287 15.3781C11.7105 15.3782 11.7914 15.379 11.8715 15.3799L11.8717 15.3799C11.925 15.3805 11.9779 15.3811 12.0304 15.3814L12.0307 16.3276L12.5924 16.3277L12.5924 15.3915C12.7466 15.3947 12.8959 15.396 13.0416 15.3958L13.0413 16.3277L13.6037 16.3276L13.6038 15.3831C14.5492 15.3282 15.2109 15.087 15.293 14.188C15.3594 13.4641 15.0231 13.1411 14.4865 13.0105ZM14.1819 14.0759C14.182 13.4125 13.2151 13.4356 12.7433 13.4469C12.6906 13.4481 12.644 13.4493 12.6057 13.4492L12.6056 14.7029C12.637 14.7029 12.674 14.7034 12.7154 14.704H12.7155C13.1759 14.7104 14.1822 14.7246 14.1819 14.0759ZM12.7211 11.7362C13.1146 11.7256 13.9203 11.704 13.9204 12.3071C13.9202 12.8969 13.0824 12.8829 12.6982 12.8765C12.6633 12.8759 12.6322 12.8754 12.6057 12.8754L12.6057 11.7384C12.6378 11.7384 12.6769 11.7374 12.7211 11.7362Z" fill="#F7931A"/>
</svg>
