<svg width="26" height="26" viewBox="0 0 26 26" fill="none" xmlns="http://www.w3.org/2000/svg">
<path opacity="0.2" d="M13 26C20.1797 26 26 20.1797 26 13C26 5.8203 20.1797 0 13 0C5.8203 0 0 5.8203 0 13C0 20.1797 5.8203 26 13 26Z" fill="#2573C2"/>
<path d="M19.2769 10.153C19.2643 9.94256 19.2026 9.73805 19.0966 9.55582C19.0028 9.36805 18.8356 9.22158 18.6403 9.14647C18.4412 9.04722 18.2206 8.99883 17.9981 9.00563H9.66456L9.06743 10.7952H16.618L15.4256 14.4531H7.87692L7.27979 16.2426H15.6528C15.9023 16.2354 16.149 16.1878 16.3833 16.1018C16.618 15.9684 16.8865 15.8332 17.1137 15.6455C17.3355 15.4706 17.536 15.2701 17.7108 15.0483C17.8554 14.831 17.9787 14.6002 18.0789 14.3592L19.1849 10.8815C19.2855 10.6527 19.3175 10.3996 19.2769 10.153Z" fill="#2573C2"/>
<path d="M12.0437 11.7941H7.60089L7.00375 13.4485H11.4916L12.0437 11.7941Z" fill="#2573C2"/>
</svg>
