<svg width="26" height="26" viewBox="0 0 26 26" fill="none" xmlns="http://www.w3.org/2000/svg">
<path opacity="0.1" d="M13 26C20.1797 26 26 20.1797 26 13C26 5.8203 20.1797 0 13 0C5.8203 0 0 5.8203 0 13C0 20.1797 5.8203 26 13 26Z" fill="#3AB83A"/>
<mask id="mask0_1:876" style="mask-type:alpha" maskUnits="userSpaceOnUse" x="0" y="0" width="26" height="26">
<path d="M13 26C20.1797 26 26 20.1797 26 13C26 5.8203 20.1797 0 13 0C5.8203 0 0 5.8203 0 13C0 20.1797 5.8203 26 13 26Z" fill="white"/>
</mask>
<g mask="url(#mask0_1:876)">
<path fill-rule="evenodd" clip-rule="evenodd" d="M10 12.326L13.5144 10.0416L17 12.3402L13.499 6L10 12.326ZM10.1341 12.9858L13.5182 10.7557L16.8583 12.9693L13.5201 15.2017L10.1341 12.9858ZM10 13.6243C11.2334 14.4331 12.5204 15.2797 13.5144 15.9348L17 13.6243C15.7379 15.9395 14.6865 17.8669 13.5144 20L12.7957 18.6974C11.8301 16.9471 10.8343 15.1422 10 13.6243Z" fill="#3AB83A"/>
<path fill-rule="evenodd" clip-rule="evenodd" d="M13.5 6L13.5131 10.0416L17 12.3402L13.5 6ZM13.5164 10.7557L16.8786 12.9693L13.5181 15.2017L13.5164 10.7557ZM13.5131 15.9348L17 13.6243C15.9185 15.9395 13.5131 20 13.5131 20V15.9348Z" fill="#0B8311"/>
</g>
</svg>
