<svg width="26" height="26" viewBox="0 0 26 26" fill="none" xmlns="http://www.w3.org/2000/svg">
<path d="M13 22C17.9706 22 22 17.9706 22 13C22 8.02944 17.9706 4 13 4C8.02944 4 4 8.02944 4 13C4 17.9706 8.02944 22 13 22Z" fill="white"/>
<path d="M20.5017 17.8224H16.9498V13L13 16.8972L9.05023 13V17.8224H5.49828H5.38461C6.97589 20.3178 9.78903 22 13 22C16.211 22 19.0241 20.3458 20.6154 17.8224H20.5017Z" fill="#4C4C4C"/>
<path d="M7.17981 15.7692V8.35377L13 14.112L18.8202 8.35377V15.7692H21.5173C21.8297 14.8704 22 13.9154 22 12.9042C22 7.98862 17.9685 4 13 4C8.03155 4 4 7.98862 4 12.9042C4 13.9154 4.17035 14.8704 4.48265 15.7692H7.17981Z" fill="#FF6B01"/>
<path opacity="0.1" d="M25.9295 13.0002C25.9295 20.1422 20.1399 25.9318 12.9981 25.9318C5.85621 25.9318 0.0666122 20.1422 0.0666122 13.0002C0.0666122 5.85841 5.85621 0.0688171 12.9981 0.0688171C20.1399 0.0688171 25.9295 5.85841 25.9295 13.0002Z" fill="#BEBEBE"/>
</svg>
