<svg width="26" height="26" viewBox="0 0 26 26" fill="none" xmlns="http://www.w3.org/2000/svg">
<path opacity="0.2" d="M13 26C20.1797 26 26 20.1797 26 13C26 5.8203 20.1797 0 13 0C5.8203 0 0 5.8203 0 13C0 20.1797 5.8203 26 13 26Z" fill="#1276A7"/>
<path d="M14.5719 7.32284C13.7583 7.78605 13.2765 8.62251 13.2765 9.50457C13.2765 9.96777 13.4685 10.4346 13.7088 10.851C13.9007 11.223 13.9948 11.8723 13.3249 12.1975C12.8468 12.4747 12.2214 12.2899 11.9354 11.8255C11.6492 11.4535 11.3137 11.0815 10.8814 10.8042C10.0678 10.341 9.10795 10.341 8.29424 10.8042C7.48053 11.2674 7 12.106 7 12.9883C7 13.8706 7.47806 14.7068 8.29405 15.1712C9.1077 15.6344 10.0675 15.6344 10.8812 15.1712C11.3135 14.9384 11.649 14.5688 11.8869 14.15C12.0788 13.8248 12.6064 13.406 13.2764 13.778C13.7545 14.0552 13.8981 14.6612 13.6603 15.1244C13.4201 15.5432 13.2764 16.0077 13.2764 16.4709C13.2764 17.3541 13.7545 18.1893 14.5718 18.6526C15.3855 19.1158 16.3453 19.1158 17.159 18.6526C17.9727 18.1894 18.4545 17.3529 18.4545 16.4709C18.4545 15.5888 17.9753 14.7524 17.1591 14.288C16.7269 14.0552 16.2476 13.9628 15.7212 13.9628C15.289 13.9628 14.7156 13.6856 14.7156 12.9883C14.7156 12.4303 15.1478 12.0138 15.7212 12.0138C16.1993 12.0138 16.7269 11.9214 17.1591 11.6886C17.9728 11.2254 18.4545 10.389 18.4545 9.50697C18.4545 8.62497 17.9753 7.78851 17.1591 7.32524C16.7752 7.09244 16.2971 7.00004 15.8651 7.00004C15.4353 6.99764 14.9535 7.09244 14.5721 7.32284" fill="#1276A7"/>
</svg>
