<svg width="26" height="26" viewBox="0 0 26 26" fill="none" xmlns="http://www.w3.org/2000/svg">
<path opacity="0.2" d="M13 26C20.1797 26 26 20.1797 26 13C26 5.8203 20.1797 0 13 0C5.8203 0 0 5.8203 0 13C0 20.1797 5.8203 26 13 26Z" fill="#6DDFFF"/>
<mask id="mask0_1:110" style="mask-type:alpha" maskUnits="userSpaceOnUse" x="0" y="0" width="26" height="26">
<path d="M13 26C20.1797 26 26 20.1797 26 13C26 5.8203 20.1797 0 13 0C5.8203 0 0 5.8203 0 13C0 20.1797 5.8203 26 13 26Z" fill="white"/>
</mask>
<g mask="url(#mask0_1:110)">
<path fill-rule="evenodd" clip-rule="evenodd" d="M16.4553 12.5594C15.7329 13.4335 15.0295 14.2954 15.0295 14.2954C15.0295 14.2954 15.6479 15.2789 15.3957 16.6691C15.1438 18.059 14.3452 19.0001 14.3452 19.0001C14.3452 19.0001 14.2788 18.1826 14.0979 17.7264C13.9175 17.27 13.2047 16.3671 13.2047 16.3671C13.2047 16.3671 12.8816 16.7601 12.5078 16.7791C12.3665 16.7861 12.1394 16.676 11.8743 16.5089C11.8428 16.5562 11.8106 16.6034 11.7773 16.6501C10.7367 18.1203 9.28699 18.8832 8.53948 18.3543C7.79186 17.8249 8.02938 16.2044 9.0703 14.7341C9.11426 14.6716 9.15914 14.6113 9.20472 14.5518C8.91283 14.3059 8.70078 14.0799 8.68684 13.9213C8.6551 13.5601 8.81974 13.3132 8.81974 13.3132C8.81974 13.3132 8.12287 13.0219 7.42579 13.0027C6.72891 12.9835 6 13.1926 6 13.1926C6 13.1926 6.67171 12.052 7.76801 11.4438C8.86421 10.8354 10.2519 10.8608 10.2519 10.8608C10.2519 10.8608 10.8854 9.76471 11.1897 9.25147L11.2246 9.19233C11.5405 8.65621 12.1683 7.59063 13.7306 6.74858C15.3526 5.87423 17.2916 6.00724 17.2916 6.00724C17.2916 6.00724 17.8111 7.47709 17.8111 8.99799C17.8111 10.5188 17.1776 11.6847 16.4553 12.5594ZM14.3638 8.50937C13.5063 8.50937 12.8112 9.20433 12.8112 10.0618C12.8112 10.9192 13.5063 11.6142 14.3638 11.6142C15.221 11.6142 15.9161 10.9192 15.9161 10.0618C15.9162 9.20433 15.2211 8.50937 14.3638 8.50937ZM9.28159 17.2844C8.75805 16.8979 8.89277 15.828 9.58197 14.8949C9.58326 14.8931 9.58462 14.8914 9.58598 14.8896C9.5875 14.8877 9.58902 14.8858 9.59046 14.8838C9.77732 15.0235 9.97179 15.1626 10.1545 15.2932C10.2441 15.3573 10.331 15.4194 10.4127 15.4786C10.545 15.5746 10.6878 15.6818 10.8349 15.7921C11.0512 15.9543 11.2766 16.1234 11.4912 16.2743C11.4889 16.2774 11.4868 16.2805 11.4847 16.2837C11.4822 16.2874 11.4797 16.2911 11.477 16.2947C10.7875 17.228 9.80483 17.6708 9.28159 17.2844Z" fill="#6DDFFF"/>
<path fill-rule="evenodd" clip-rule="evenodd" d="M3.5 22.5L5.60328 19.7088C5.71525 19.5603 5.92646 19.5306 6.07503 19.6425C6.22361 19.7545 6.2533 19.9657 6.14133 20.1143L4.03805 22.9055L3.5 22.5Z" fill="#6DDFFF"/>
<path fill-rule="evenodd" clip-rule="evenodd" d="M4.61443 23.3707L5.98029 21.5581C6.09225 21.4096 6.30346 21.3799 6.45204 21.4918C6.60062 21.6038 6.6303 21.815 6.51834 21.9636L5.15248 23.7761L4.61443 23.3707Z" fill="#6DDFFF"/>
</g>
</svg>
